<?xml version="1.0" encoding="utf-8"?>
<!-- Svg Vector Icons : http://www.onlinewebfonts.com/icon -->
<!DOCTYPE svg PUBLIC "-//W3C//DTD SVG 1.1//EN" "http://www.w3.org/Graphics/SVG/1.1/DTD/svg11.dtd">
<svg version="1.1" fill="#5294e2" xmlns="http://www.w3.org/2000/svg" xmlns:xlink="http://www.w3.org/1999/xlink" x="0px" y="0px" viewBox="0 0 1000 1000" enable-background="new 0 0 1000 1000" xml:space="preserve">
<metadata> Svg Vector Icons : http://www.onlinewebfonts.com/icon </metadata>
<g><g transform="translate(0.000000,511.000000) scale(0.100000,-0.100000)"><path d="M2439.1,4968.7c-39.3-39.3-41.4-68.2-41.4-535.5V3939l-49.6-31c-72.4-47.6-122-169.5-109.6-275c12.4-117.8,78.6-204.7,190.2-246c306-117.9,550,258.4,322.5,494.1l-64.1,66.2v490c0,463.1-2.1,492.1-41.4,531.4c-22.7,22.7-68.2,41.3-103.4,41.3S2461.9,4991.4,2439.1,4968.7z"/><path d="M4134.5,4968.7c-39.3-39.3-41.3-68.2-41.3-535.5V3939l-49.6-31c-72.4-47.6-122-169.5-109.6-275c12.4-117.8,78.6-204.7,190.2-246c306-117.9,550,258.4,322.5,494.1l-64.1,66.2v490c0,463.1-2.1,492.1-41.4,531.4c-22.7,22.7-68.2,41.3-103.4,41.3S4157.2,4991.4,4134.5,4968.7z"/><path d="M5850.5,4968.7c-39.3-39.3-41.3-68.2-41.3-535.5V3939l-49.6-31c-72.4-47.6-122-169.5-109.6-275c12.4-117.8,78.6-204.7,190.2-246c306-117.9,550,258.4,322.5,494.1l-64.1,66.2v490c0,463.1-2.1,492.1-41.3,531.4c-22.7,22.7-68.2,41.3-103.4,41.3C5918.7,5010,5873.2,4991.4,5850.5,4968.7z"/><path d="M1192.4,4431.1c-142.7-55.8-270.8-169.5-332.9-293.6L805.8,4030V-125.7v-4157.7l60-124.1c72.4-150.9,181.9-258.4,332.9-328.7l113.7-53.8h2948.3h2946.2l107.5,53.8c128.2,64.1,239.9,192.3,295.7,339.1c37.2,99.2,39.3,171.6,39.3,1525.8V-1451l-140.6-279.1l-138.5-279.1L7359.8-3136c-10.3-1079.2-12.4-1128.8-51.7-1197.1c-22.7-39.3-68.2-88.9-99.2-113.7l-57.9-43.4l-2857.3-6.2c-3173.6-6.2-2964.8-14.5-3093,130.2c-35.2,39.3-72.4,107.5-84.8,148.9c-16.5,55.8-20.7,1255-16.5,4135l6.2,4056.4l43.4,57.9c93,126.1,148.9,140.6,552,146.8l366,8.3v142.7v142.7h-386.6C1351.6,4470.4,1277.2,4464.2,1192.4,4431.1z"/><path d="M3018,4327.7V4183h372.2h372.1v144.7v144.7h-372.1H3018V4327.7z"/><path d="M4713.4,4327.7V4183h382.5h382.5v144.7v144.7h-382.5h-382.5V4327.7z"/><path d="M6429.4,4331.9v-144.7l368-8.3c399-6.2,438.3-16.5,514.8-134.4c33.1-49.6,37.2-124,43.4-649.2l6.2-595.4l74.4,49.6c39.3,28.9,105.4,55.8,144.7,64.1l70.3,12.4l-6.2,583c-6.2,550-8.3,585.1-51.7,663.7c-51.7,97.2-153,196.4-254.3,250.2c-62,33.1-130.2,39.3-490,45.5l-419.7,6.2V4331.9z"/><path d="M8217.8,3070.7c-95.1-22.7-150.9-88.9-248.1-303.9c-78.6-171.6-107.5-215-132.3-204.7c-138.5,57.9-148.8,60-202.6,28.9c-41.3-24.8-188.1-314.3-669.9-1312.9c-339.1-705-616.1-1306.7-618.2-1335.6c0-101.3,113.7-157.2,186.1-91c20.7,18.6,285.3,550,589.2,1184.7c303.9,632.7,574.8,1174.4,599.6,1201.2c60,62,31,72.4,653.3-231.6l490-237.8l155.1,324.6c84.8,177.8,161.3,343.2,169.5,370.1c18.6,62-20.7,173.7-78.6,225.4c-53.8,47.5-725.7,370.1-800.1,384.5C8281.9,3076.9,8240.5,3076.9,8217.8,3070.7z"/><path d="M2149.7,1929.4v-144.7h2077.8h2077.8v144.7v144.7H4227.5H2149.7V1929.4z"/><path d="M7690.6,1615.1c-88.9-186.1-324.6-676.1-525.1-1091.6c-198.5-415.6-386.6-785.7-417.6-825c-60-74.4-194.4-144.7-277.1-146.8c-47.5,0-80.6-60-390.8-709.2c-186.1-388.7-337-715.4-337-727.8c0-10.3,244-138.5,543.8-281.2l545.8-262.6l55.8,115.8c31,66.2,461,955.2,953.1,1978.6l897.3,1860.8l-434.2,212.9c-239.8,115.8-438.3,210.9-442.4,210.9C7856,1950.1,7779.5,1799.2,7690.6,1615.1z"/><path d="M2149.7,895.7V750.9h2077.8h2077.8v144.7v144.7H4227.5H2149.7V895.7z"/><path d="M2149.7-138.1v-144.7h1962.1h1962.1l-28.9,97.2c-16.6,51.7-29,117.9-29,144.7V6.6H4082.8H2149.7V-138.1z"/><path d="M5602.4-2158.1c0-10.3-18.6-285.3-41.3-616.1c-49.6-740.2-51.7-843.5-10.3-878.7c22.7-18.6,45.5-20.7,78.6-6.2c62,28.9,1079.2,953.1,1079.2,980c0,22.8-1044.1,535.5-1087.5,535.5C5610.7-2143.6,5602.4-2149.8,5602.4-2158.1z"/></g></g>
</svg>